<svg  width="1612" height="907" xmlns="http://www.w3.org/2000/svg">
    <g transform="translate(1 1)" fill="none" fill-rule="evenodd">
        <path
            d="M1511.35 98.7993C1410.7555 98.7993 1410.7555 0 1310.161 0s-100.5946 98.7993-201.1884 98.7993C1008.3832 98.7993 1008.3832 0 907.7921 0 807.206 0 807.206 98.7993 706.6194 98.7993m804.7306 9.3982c-100.5945 0-100.5945-98.7992-201.1891-98.7992s-100.5946 98.7992-201.1884 98.7992c-100.5893 0-100.5893-98.7992-201.1804-98.7992-100.586 0-100.586 98.7992-201.1727 98.7992m804.7306 9.3983c-100.5945 0-100.5945-98.7992-201.1891-98.7992s-100.5946 98.7992-201.1884 98.7992c-100.5893 0-100.5893-98.7992-201.1804-98.7992-100.586 0-100.586 98.7992-201.1727 98.7992m804.7306 9.3983c-100.5945 0-100.5945-98.7992-201.1891-98.7992s-100.5946 98.7992-201.1884 98.7992c-100.5893 0-100.5893-98.7992-201.1804-98.7992-100.586 0-100.586 98.7992-201.1727 98.7992m804.7306 9.3905c-100.5945 0-100.5945-98.7993-201.1891-98.7993s-100.5946 98.7993-201.1884 98.7993c-100.5893 0-100.5893-98.7993-201.1804-98.7993-100.586 0-100.586 98.7993-201.1727 98.7993m804.7306 9.3965c-100.5945 0-100.5945-98.7993-201.1891-98.7993s-100.5946 98.7993-201.1884 98.7993c-100.5893 0-100.5893-98.7993-201.1804-98.7993-100.586 0-100.586 98.7993-201.1727 98.7993m804.7306 9.3957c-100.5945 0-100.5945-98.7993-201.1891-98.7993s-100.5946 98.7993-201.1884 98.7993c-100.5893 0-100.5893-98.7993-201.1804-98.7993-100.586 0-100.586 98.7993-201.1727 98.7993m804.7306 9.3983c-100.5945 0-100.5945-98.7993-201.1891-98.7993s-100.5946 98.7993-201.1884 98.7993c-100.5893 0-100.5893-98.7993-201.1804-98.7993-100.586 0-100.586 98.7993-201.1727 98.7993m804.7306 9.3956c-100.5945 0-100.5945-98.7992-201.1891-98.7992s-100.5946 98.7992-201.1884 98.7992c-100.5893 0-100.5893-98.7992-201.1804-98.7992-100.586 0-100.586 98.7992-201.1727 98.7992m804.7306 9.3974c-100.5945 0-100.5945-98.7992-201.1891-98.7992s-100.5946 98.7992-201.1884 98.7992c-100.5893 0-100.5893-98.7992-201.1804-98.7992-100.586 0-100.586 98.7992-201.1727 98.7992m804.7306 9.393c-100.5945 0-100.5945-98.7983-201.1891-98.7983s-100.5946 98.7984-201.1884 98.7984c-100.5893 0-100.5893-98.7984-201.1804-98.7984-100.586 0-100.586 98.7984-201.1727 98.7984m804.7306 9.4759c-100.5945 0-100.5945-98.7993-201.1891-98.7993s-100.5946 98.7993-201.1884 98.7993c-100.5893 0-100.5893-98.7993-201.1804-98.7993-100.586 0-100.586 98.7993-201.1727 98.7993m804.7306 9.3965c-100.5945 0-100.5945-98.7992-201.1891-98.7992s-100.5946 98.7992-201.1884 98.7992c-100.5893 0-100.5893-98.7992-201.1804-98.7992-100.586 0-100.586 98.7992-201.1727 98.7992m804.7306 9.3957c-100.5945 0-100.5945-98.7984-201.1891-98.7984s-100.5946 98.7984-201.1884 98.7984c-100.5893 0-100.5893-98.7984-201.1804-98.7984-100.586 0-100.586 98.7984-201.1727 98.7984m804.7306 9.3965c-100.5945 0-100.5945-98.7992-201.1891-98.7992s-100.5946 98.7992-201.1884 98.7992c-100.5893 0-100.5893-98.7992-201.1804-98.7992-100.586 0-100.586 98.7992-201.1727 98.7992m804.7306 9.3974c-100.5945 0-100.5945-98.7983-201.1891-98.7983s-100.5946 98.7983-201.1884 98.7983c-100.5893 0-100.5893-98.7983-201.1804-98.7983-100.586 0-100.586 98.7983-201.1727 98.7983m804.7306 9.3974c-100.5945 0-100.5945-98.7992-201.1891-98.7992s-100.5946 98.7992-201.1884 98.7992c-100.5893 0-100.5893-98.7992-201.1804-98.7992-100.586 0-100.586 98.7992-201.1727 98.7992m804.7306 9.3957c-100.5945 0-100.5945-98.7992-201.1891-98.7992s-100.5946 98.7992-201.1884 98.7992c-100.5893 0-100.5893-98.7992-201.1804-98.7992-100.586 0-100.586 98.7992-201.1727 98.7992m804.7306 9.3966c-100.5945 0-100.5945-98.7993-201.1891-98.7993s-100.5946 98.7993-201.1884 98.7993c-100.5893 0-100.5893-98.7993-201.1804-98.7993-100.586 0-100.586 98.7993-201.1727 98.7993m804.7306 9.3965c-100.5945 0-100.5945-98.7992-201.1891-98.7992s-100.5946 98.7992-201.1884 98.7992c-100.5893 0-100.5893-98.7992-201.1804-98.7992-100.586 0-100.586 98.7992-201.1727 98.7992m804.7306 9.3957c-100.5945 0-100.5945-98.7993-201.1891-98.7993s-100.5946 98.7993-201.1884 98.7993c-100.5893 0-100.5893-98.7993-201.1804-98.7993-100.586 0-100.586 98.7993-201.1727 98.7993m804.7306 9.3965c-100.5945 0-100.5945-98.7992-201.1891-98.7992s-100.5946 98.7992-201.1884 98.7992c-100.5893 0-100.5893-98.7992-201.1804-98.7992-100.586 0-100.586 98.7992-201.1727 98.7992m0 0C807.2062 296.2016 807.2062 395 907.7921 395c100.591 0 100.591-98.7984 201.1804-98.7984 100.5938 0 100.5938 98.7984 201.1883 98.7984 100.5947 0 100.5947-98.7984 201.1892-98.7984m-804.7306-9.3965c100.5868 0 100.5868 98.7992 201.1727 98.7992 100.591 0 100.591-98.7992 201.1804-98.7992 100.5938 0 100.5938 98.7992 201.1883 98.7992 100.5947 0 100.5947-98.7992 201.1892-98.7992m-804.7306-9.3957c100.5868 0 100.5868 98.7984 201.1727 98.7984 100.591 0 100.591-98.7984 201.1804-98.7984 100.5938 0 100.5938 98.7984 201.1883 98.7984 100.5947 0 100.5947-98.7984 201.1892-98.7984m-804.7306-9.3965c100.5868 0 100.5868 98.7983 201.1727 98.7983 100.591 0 100.591-98.7983 201.1804-98.7983 100.5938 0 100.5938 98.7983 201.1883 98.7983 100.5947 0 100.5947-98.7983 201.1892-98.7983m-804.7306-9.3966c100.5868 0 100.5868 98.7993 201.1727 98.7993 100.591 0 100.591-98.7993 201.1804-98.7993 100.5938 0 100.5938 98.7993 201.1883 98.7993 100.5947 0 100.5947-98.7993 201.1892-98.7993m-804.7306-9.3957c100.5868 0 100.5868 98.7993 201.1727 98.7993 100.591 0 100.591-98.7993 201.1804-98.7993 100.5938 0 100.5938 98.7993 201.1883 98.7993 100.5947 0 100.5947-98.7993 201.1892-98.7993m-804.7306-9.3974c100.5868 0 100.5868 98.7993 201.1727 98.7993 100.591 0 100.591-98.7993 201.1804-98.7993 100.5938 0 100.5938 98.7993 201.1883 98.7993 100.5947 0 100.5947-98.7993 201.1892-98.7993m-804.7306-9.3974c100.5868 0 100.5868 98.7984 201.1727 98.7984 100.591 0 100.591-98.7984 201.1804-98.7984 100.5938 0 100.5938 98.7984 201.1883 98.7984 100.5947 0 100.5947-98.7984 201.1892-98.7984m-804.7306-9.3965c100.5868 0 100.5868 98.7992 201.1727 98.7992 100.591 0 100.591-98.7992 201.1804-98.7992 100.5938 0 100.5938 98.7992 201.1883 98.7992 100.5947 0 100.5947-98.7992 201.1892-98.7992m-804.7306-9.3957c100.5868 0 100.5868 98.7993 201.1727 98.7993 100.591 0 100.591-98.7993 201.1804-98.7993 100.5938 0 100.5938 98.7993 201.1883 98.7993 100.5947 0 100.5947-98.7993 201.1892-98.7993m-804.7306-9.3965c100.5868 0 100.5868 98.7983 201.1727 98.7983 100.591 0 100.591-98.7983 201.1804-98.7983 100.5938 0 100.5938 98.7983 201.1883 98.7983 100.5947 0 100.5947-98.7983 201.1892-98.7983m-804.7-9.4881c100.5867 0 100.5867 98.7992 201.1726 98.7992 100.591 0 100.591-98.7992 201.1813-98.7992 100.5938 0 100.5938 98.7992 201.1883 98.7992 100.5938 0 100.5938-98.7992 201.1884-98.7992m-804.7612-9.3809c100.5868 0 100.5868 98.7993 201.1727 98.7993 100.591 0 100.591-98.7993 201.1804-98.7993 100.5938 0 100.5938 98.7993 201.1883 98.7993 100.5947 0 100.5947-98.7993 201.1892-98.7993m-804.7306-9.3974c100.5868 0 100.5868 98.7993 201.1727 98.7993 100.591 0 100.591-98.7993 201.1804-98.7993 100.5938 0 100.5938 98.7993 201.1883 98.7993 100.5947 0 100.5947-98.7993 201.1892-98.7993m-804.7306-9.3956c100.5868 0 100.5868 98.7992 201.1727 98.7992 100.591 0 100.591-98.7992 201.1804-98.7992 100.5938 0 100.5938 98.7992 201.1883 98.7992 100.5947 0 100.5947-98.7992 201.1892-98.7992m-804.7306-9.3983c100.5868 0 100.5868 98.7992 201.1727 98.7992 100.591 0 100.591-98.7992 201.1804-98.7992 100.5938 0 100.5938 98.7992 201.1883 98.7992 100.5947 0 100.5947-98.7992 201.1892-98.7992m-804.7306-9.3957c100.5868 0 100.5868 98.7984 201.1727 98.7984 100.591 0 100.591-98.7984 201.1804-98.7984 100.5938 0 100.5938 98.7984 201.1883 98.7984 100.5947 0 100.5947-98.7984 201.1892-98.7984m-804.7306-9.3965c100.5868 0 100.5868 98.7983 201.1727 98.7983 100.591 0 100.591-98.7983 201.1804-98.7983 100.5938 0 100.5938 98.7983 201.1883 98.7983 100.5947 0 100.5947-98.7983 201.1892-98.7983m-804.7306-9.3905c100.5868 0 100.5868 98.7984 201.1727 98.7984 100.591 0 100.591-98.7984 201.1804-98.7984 100.5938 0 100.5938 98.7984 201.1883 98.7984 100.5947 0 100.5947-98.7984 201.1892-98.7984m-804.7306-9.3983c100.5868 0 100.5868 98.7984 201.1727 98.7984 100.591 0 100.591-98.7984 201.1804-98.7984 100.5938 0 100.5938 98.7984 201.1883 98.7984 100.5947 0 100.5947-98.7984 201.1892-98.7984m-804.7306-9.3983c100.5868 0 100.5868 98.7984 201.1727 98.7984 100.591 0 100.591-98.7984 201.1804-98.7984 100.5938 0 100.5938 98.7984 201.1883 98.7984 100.5947 0 100.5947-98.7984 201.1892-98.7984m-804.7306-9.3982c100.5868 0 100.5868 98.7992 201.1727 98.7992 100.591 0 100.591-98.7992 201.1804-98.7992 100.5938 0 100.5938 98.7992 201.1883 98.7992 100.5947 0 100.5947-98.7992 201.1892-98.7992m.0306 0c54.4656 0 98.6194 44.1896 98.6194 98.7007s-44.1538 98.7016-98.6194 98.7016m0-188.0058c49.2805 0 89.231 39.9835 89.231 89.3042 0 49.3225-39.9505 89.3033-89.231 89.3033m0-169.211c44.0953 0 79.8427 35.7765 79.8427 79.9077 0 44.1321-35.7474 79.9068-79.8427 79.9068m0-150.4188c38.911 0 70.4535 31.5703 70.4535 70.512 0 38.9435-31.5424 70.5102-70.4535 70.5102m0-131.6256c33.726 0 61.066 27.3632 61.066 61.1154s-27.34 61.1163-61.066 61.1163m0-112.8352c28.5408 0 51.6768 23.1562 51.6768 51.7189s-23.136 51.7206-51.6768 51.7206m0-94.0438c23.3548 0 42.2885 18.9482 42.2885 42.3232 0 23.3732-18.9337 42.3232-42.2885 42.3232m0-75.2481c18.1697 0 32.9001 14.7394 32.9001 32.9249s-14.7304 32.9258-32.9001 32.9258m0-56.455c12.9846 0 23.511 10.5332 23.511 23.5292 0 12.9969-10.5264 23.5301-23.511 23.5301m0-37.662c7.7995 0 14.1226 6.3263 14.1226 14.1319 0 7.8065-6.3231 14.1336-14.1226 14.1336m0-18.8698c2.6135 0 4.7342 2.12 4.7342 4.7362 0 2.617-2.1207 4.7388-4.7342 4.7388m-804.7612 93.9628c-54.4665 0-98.6194-44.1905-98.6194-98.6999 0-54.5128 44.153-98.7024 98.6194-98.7024m0 188.0058c-49.2805 0-89.231-39.9826-89.231-89.3034 0-49.3224 39.9505-89.3042 89.231-89.3042m0 169.212c-44.0953 0-79.8418-35.7774-79.8418-79.9078 0-44.133 35.7465-79.9076 79.8418-79.9076m0 150.4188c-38.912 0-70.4544-31.5694-70.4544-70.5112 0-38.9434 31.5424-70.512 70.4544-70.512m0 131.6266c-33.726 0-61.066-27.364-61.066-61.1146 0-33.754 27.34-61.1171 61.066-61.1171m0 112.836c-28.5408 0-51.6768-23.1579-51.6768-51.7189 0-28.5644 23.136-51.7206 51.6768-51.7206m0 94.0421c-23.3557 0-42.2885-18.9474-42.2885-42.3215 0-23.375 18.9328-42.325 42.2885-42.325m0 75.2491c-18.1706 0-32.8993-14.7403-32.8993-32.924 0-18.1873 14.7287-32.9267 32.8993-32.9267m0 56.4542c-12.9846 0-23.5118-10.5333-23.5118-23.5276 0-12.9977 10.5272-23.531 23.5118-23.531m0 37.663c-7.7995 0-14.1235-6.3272-14.1235-14.132 0-7.8073 6.324-14.1336 14.1235-14.1336m0 18.869c-2.6135 0-4.7342-2.1201-4.7342-4.7354 0-2.6178 2.1207-4.7405 4.7342-4.7405"
            stroke="#50E3C2"
        />
        <path
            d="M903.35 401.7993C802.7554 401.7993 802.7554 303 702.161 303c-100.5946 0-100.5946 98.7993-201.1884 98.7993C400.3832 401.7993 400.3832 303 299.7921 303c-100.586 0-100.586 98.7993-201.1727 98.7993m804.7306 9.3982c-100.5946 0-100.5946-98.7992-201.1891-98.7992-100.5946 0-100.5946 98.7992-201.1884 98.7992-100.5893 0-100.5893-98.7992-201.1804-98.7992-100.586 0-100.586 98.7992-201.1727 98.7992m804.7306 9.3983c-100.5946 0-100.5946-98.7992-201.1891-98.7992-100.5946 0-100.5946 98.7992-201.1884 98.7992-100.5893 0-100.5893-98.7992-201.1804-98.7992-100.586 0-100.586 98.7992-201.1727 98.7992m804.7306 9.3983c-100.5946 0-100.5946-98.7992-201.1891-98.7992-100.5946 0-100.5946 98.7992-201.1884 98.7992-100.5893 0-100.5893-98.7992-201.1804-98.7992-100.586 0-100.586 98.7992-201.1727 98.7992m804.7306 9.3905c-100.5946 0-100.5946-98.7993-201.1891-98.7993-100.5946 0-100.5946 98.7993-201.1884 98.7993-100.5893 0-100.5893-98.7993-201.1804-98.7993-100.586 0-100.586 98.7993-201.1727 98.7993M903.35 448.781c-100.5946 0-100.5946-98.7993-201.1891-98.7993-100.5946 0-100.5946 98.7993-201.1884 98.7993-100.5893 0-100.5893-98.7993-201.1804-98.7993-100.586 0-100.586 98.7993-201.1727 98.7993m804.7306 9.3957c-100.5946 0-100.5946-98.7993-201.1891-98.7993-100.5946 0-100.5946 98.7993-201.1884 98.7993-100.5893 0-100.5893-98.7993-201.1804-98.7993-100.586 0-100.586 98.7993-201.1727 98.7993M903.35 467.575c-100.5946 0-100.5946-98.7993-201.1891-98.7993-100.5946 0-100.5946 98.7993-201.1884 98.7993-100.5893 0-100.5893-98.7993-201.1804-98.7993-100.586 0-100.586 98.7993-201.1727 98.7993m804.7306 9.3956c-100.5946 0-100.5946-98.7992-201.1891-98.7992-100.5946 0-100.5946 98.7992-201.1884 98.7992-100.5893 0-100.5893-98.7992-201.1804-98.7992-100.586 0-100.586 98.7992-201.1727 98.7992m804.7306 9.3974c-100.5946 0-100.5946-98.7992-201.1891-98.7992-100.5946 0-100.5946 98.7992-201.1884 98.7992-100.5893 0-100.5893-98.7992-201.1804-98.7992-100.586 0-100.586 98.7992-201.1727 98.7992m804.7306 9.393c-100.5946 0-100.5946-98.7983-201.1891-98.7983-100.5946 0-100.5946 98.7984-201.1884 98.7984-100.5893 0-100.5893-98.7984-201.1804-98.7984-100.586 0-100.586 98.7984-201.1727 98.7984M903.35 505.237c-100.5946 0-100.5946-98.7993-201.1891-98.7993-100.5946 0-100.5946 98.7993-201.1884 98.7993-100.5893 0-100.5893-98.7993-201.1804-98.7993-100.586 0-100.586 98.7993-201.1727 98.7993m804.7306 9.3965c-100.5946 0-100.5946-98.7992-201.1891-98.7992-100.5946 0-100.5946 98.7992-201.1884 98.7992-100.5893 0-100.5893-98.7992-201.1804-98.7992-100.586 0-100.586 98.7992-201.1727 98.7992m804.7306 9.3957c-100.5946 0-100.5946-98.7984-201.1891-98.7984-100.5946 0-100.5946 98.7984-201.1884 98.7984-100.5893 0-100.5893-98.7984-201.1804-98.7984-100.586 0-100.586 98.7984-201.1727 98.7984m804.7306 9.3965c-100.5946 0-100.5946-98.7992-201.1891-98.7992-100.5946 0-100.5946 98.7992-201.1884 98.7992-100.5893 0-100.5893-98.7992-201.1804-98.7992-100.586 0-100.586 98.7992-201.1727 98.7992m804.7306 9.3974c-100.5946 0-100.5946-98.7983-201.1891-98.7983-100.5946 0-100.5946 98.7983-201.1884 98.7983-100.5893 0-100.5893-98.7983-201.1804-98.7983-100.586 0-100.586 98.7983-201.1727 98.7983m804.7306 9.3974c-100.5946 0-100.5946-98.7992-201.1891-98.7992-100.5946 0-100.5946 98.7992-201.1884 98.7992-100.5893 0-100.5893-98.7992-201.1804-98.7992-100.586 0-100.586 98.7992-201.1727 98.7992m804.7306 9.3957c-100.5946 0-100.5946-98.7992-201.1891-98.7992-100.5946 0-100.5946 98.7992-201.1884 98.7992-100.5893 0-100.5893-98.7992-201.1804-98.7992-100.586 0-100.586 98.7992-201.1727 98.7992M903.35 571.013c-100.5946 0-100.5946-98.7993-201.1891-98.7993-100.5946 0-100.5946 98.7993-201.1884 98.7993-100.5893 0-100.5893-98.7993-201.1804-98.7993-100.586 0-100.586 98.7993-201.1727 98.7993m804.7306 9.3965c-100.5946 0-100.5946-98.7992-201.1891-98.7992-100.5946 0-100.5946 98.7992-201.1884 98.7992-100.5893 0-100.5893-98.7992-201.1804-98.7992-100.586 0-100.586 98.7992-201.1727 98.7992m804.7306 9.3957c-100.5946 0-100.5946-98.7993-201.1891-98.7993-100.5946 0-100.5946 98.7993-201.1884 98.7993-100.5893 0-100.5893-98.7993-201.1804-98.7993-100.586 0-100.586 98.7993-201.1727 98.7993m804.7306 9.3965c-100.5946 0-100.5946-98.7992-201.1891-98.7992-100.5946 0-100.5946 98.7992-201.1884 98.7992-100.5893 0-100.5893-98.7992-201.1804-98.7992-100.586 0-100.586 98.7992-201.1727 98.7992m0 0C199.2062 599.2016 199.2062 698 299.7921 698c100.591 0 100.591-98.7984 201.1804-98.7984C601.5663 599.2016 601.5663 698 702.161 698c100.5945 0 100.5945-98.7984 201.1891-98.7984m-804.7306-9.3965c100.5868 0 100.5868 98.7992 201.1727 98.7992 100.591 0 100.591-98.7992 201.1804-98.7992 100.5938 0 100.5938 98.7992 201.1884 98.7992 100.5945 0 100.5945-98.7992 201.1891-98.7992m-804.7306-9.3957c100.5868 0 100.5868 98.7984 201.1727 98.7984 100.591 0 100.591-98.7984 201.1804-98.7984 100.5938 0 100.5938 98.7984 201.1884 98.7984 100.5945 0 100.5945-98.7984 201.1891-98.7984M98.6194 571.013c100.5868 0 100.5868 98.7983 201.1727 98.7983 100.591 0 100.591-98.7983 201.1804-98.7983 100.5938 0 100.5938 98.7983 201.1884 98.7983 100.5945 0 100.5945-98.7983 201.1891-98.7983m-804.7306-9.3966c100.5868 0 100.5868 98.7993 201.1727 98.7993 100.591 0 100.591-98.7993 201.1804-98.7993 100.5938 0 100.5938 98.7993 201.1884 98.7993 100.5945 0 100.5945-98.7993 201.1891-98.7993m-804.7306-9.3957c100.5868 0 100.5868 98.7993 201.1727 98.7993 100.591 0 100.591-98.7993 201.1804-98.7993 100.5938 0 100.5938 98.7993 201.1884 98.7993 100.5945 0 100.5945-98.7993 201.1891-98.7993m-804.7306-9.3974c100.5868 0 100.5868 98.7993 201.1727 98.7993 100.591 0 100.591-98.7993 201.1804-98.7993 100.5938 0 100.5938 98.7993 201.1884 98.7993 100.5945 0 100.5945-98.7993 201.1891-98.7993m-804.7306-9.3974c100.5868 0 100.5868 98.7984 201.1727 98.7984 100.591 0 100.591-98.7984 201.1804-98.7984 100.5938 0 100.5938 98.7984 201.1884 98.7984 100.5945 0 100.5945-98.7984 201.1891-98.7984m-804.7306-9.3965c100.5868 0 100.5868 98.7992 201.1727 98.7992 100.591 0 100.591-98.7992 201.1804-98.7992 100.5938 0 100.5938 98.7992 201.1884 98.7992 100.5945 0 100.5945-98.7992 201.1891-98.7992m-804.7306-9.3957c100.5868 0 100.5868 98.7993 201.1727 98.7993 100.591 0 100.591-98.7993 201.1804-98.7993 100.5938 0 100.5938 98.7993 201.1884 98.7993 100.5945 0 100.5945-98.7993 201.1891-98.7993m-804.7306-9.3965c100.5868 0 100.5868 98.7983 201.1727 98.7983 100.591 0 100.591-98.7983 201.1804-98.7983 100.5938 0 100.5938 98.7983 201.1884 98.7983 100.5945 0 100.5945-98.7983 201.1891-98.7983m-804.7-9.4881c100.5867 0 100.5867 98.7992 201.1726 98.7992 100.591 0 100.591-98.7992 201.1813-98.7992 100.5937 0 100.5937 98.7992 201.1883 98.7992 100.5938 0 100.5938-98.7992 201.1884-98.7992M98.6194 486.368c100.5868 0 100.5868 98.7993 201.1727 98.7993 100.591 0 100.591-98.7993 201.1804-98.7993 100.5938 0 100.5938 98.7993 201.1884 98.7993 100.5945 0 100.5945-98.7993 201.1891-98.7993m-804.7306-9.3974c100.5868 0 100.5868 98.7993 201.1727 98.7993 100.591 0 100.591-98.7993 201.1804-98.7993 100.5938 0 100.5938 98.7993 201.1884 98.7993 100.5945 0 100.5945-98.7993 201.1891-98.7993m-804.7306-9.3956c100.5868 0 100.5868 98.7992 201.1727 98.7992 100.591 0 100.591-98.7992 201.1804-98.7992 100.5938 0 100.5938 98.7992 201.1884 98.7992 100.5945 0 100.5945-98.7992 201.1891-98.7992m-804.7306-9.3983c100.5868 0 100.5868 98.7992 201.1727 98.7992 100.591 0 100.591-98.7992 201.1804-98.7992 100.5938 0 100.5938 98.7992 201.1884 98.7992 100.5945 0 100.5945-98.7992 201.1891-98.7992M98.6194 448.781c100.5868 0 100.5868 98.7984 201.1727 98.7984 100.591 0 100.591-98.7984 201.1804-98.7984 100.5938 0 100.5938 98.7984 201.1884 98.7984 100.5945 0 100.5945-98.7984 201.1891-98.7984m-804.7306-9.3965c100.5868 0 100.5868 98.7983 201.1727 98.7983 100.591 0 100.591-98.7983 201.1804-98.7983 100.5938 0 100.5938 98.7983 201.1884 98.7983 100.5945 0 100.5945-98.7983 201.1891-98.7983M98.6194 429.994c100.5868 0 100.5868 98.7984 201.1727 98.7984 100.591 0 100.591-98.7984 201.1804-98.7984 100.5938 0 100.5938 98.7984 201.1884 98.7984 100.5945 0 100.5945-98.7984 201.1891-98.7984m-804.7306-9.3983c100.5868 0 100.5868 98.7984 201.1727 98.7984 100.591 0 100.591-98.7984 201.1804-98.7984 100.5938 0 100.5938 98.7984 201.1884 98.7984 100.5945 0 100.5945-98.7984 201.1891-98.7984m-804.7306-9.3983c100.5868 0 100.5868 98.7984 201.1727 98.7984 100.591 0 100.591-98.7984 201.1804-98.7984 100.5938 0 100.5938 98.7984 201.1884 98.7984 100.5945 0 100.5945-98.7984 201.1891-98.7984m-804.7306-9.3982c100.5868 0 100.5868 98.7992 201.1727 98.7992 100.591 0 100.591-98.7992 201.1804-98.7992 100.5938 0 100.5938 98.7992 201.1884 98.7992 100.5945 0 100.5945-98.7992 201.1891-98.7992m.0306 0c54.4656 0 98.6194 44.1896 98.6194 98.7007s-44.1538 98.7016-98.6194 98.7016m0-188.0058c49.2805 0 89.231 39.9835 89.231 89.3042 0 49.3225-39.9505 89.3033-89.231 89.3033m0-169.211c44.0953 0 79.8427 35.7765 79.8427 79.9077 0 44.1321-35.7474 79.9068-79.8427 79.9068m0-150.4188c38.911 0 70.4535 31.5703 70.4535 70.512 0 38.9435-31.5424 70.5102-70.4535 70.5102m0-131.6256c33.726 0 61.066 27.3632 61.066 61.1154s-27.34 61.1163-61.066 61.1163m0-112.8352c28.5408 0 51.6768 23.1562 51.6768 51.7189s-23.136 51.7206-51.6768 51.7206m0-94.0438c23.3548 0 42.2885 18.9482 42.2885 42.3232 0 23.3732-18.9337 42.3232-42.2885 42.3232m0-75.2481c18.1697 0 32.9001 14.7394 32.9001 32.9249s-14.7304 32.9258-32.9001 32.9258m0-56.455c12.9846 0 23.511 10.5332 23.511 23.5292 0 12.9969-10.5264 23.5301-23.511 23.5301m0-37.662c7.7995 0 14.1226 6.3263 14.1226 14.1319 0 7.8065-6.3231 14.1336-14.1226 14.1336m0-18.8698c2.6135 0 4.7342 2.12 4.7342 4.7362 0 2.617-2.1207 4.7388-4.7342 4.7388M98.6194 599.2016C44.153 599.2016 0 555.0111 0 500.5017c0-54.5128 44.153-98.7024 98.6194-98.7024m0 188.0058c-49.2805 0-89.231-39.9826-89.231-89.3034 0-49.3224 39.9505-89.3042 89.231-89.3042m0 169.212c-44.0953 0-79.8418-35.7774-79.8418-79.9078 0-44.133 35.7465-79.9076 79.8418-79.9076m0 150.4188c-38.912 0-70.4544-31.5694-70.4544-70.5112 0-38.9434 31.5424-70.512 70.4544-70.512m0 131.6266c-33.726 0-61.066-27.364-61.066-61.1146 0-33.754 27.34-61.1171 61.066-61.1171m0 112.836c-28.5408 0-51.6768-23.1579-51.6768-51.7189 0-28.5644 23.136-51.7206 51.6768-51.7206m0 94.0421c-23.3557 0-42.2885-18.9474-42.2885-42.3215 0-23.375 18.9328-42.325 42.2885-42.325m0 75.2491c-18.1706 0-32.8993-14.7403-32.8993-32.924 0-18.1873 14.7287-32.9267 32.8993-32.9267m0 56.4542c-12.9846 0-23.5118-10.5333-23.5118-23.5276 0-12.9977 10.5272-23.531 23.5118-23.531m0 37.663c-7.7995 0-14.1235-6.3272-14.1235-14.132 0-7.8073 6.324-14.1336 14.1235-14.1336m0 18.869c-2.6135 0-4.7342-2.1201-4.7342-4.7354 0-2.6178 2.1207-4.7405 4.7342-4.7405"
            stroke="#50E3C2"
        />
        <path
            d="M1306.35 608.7993c-100.5945 0-100.5945-98.7993-201.1891-98.7993s-100.5946 98.7993-201.1884 98.7993C803.3832 608.7993 803.3832 510 702.7921 510c-100.586 0-100.586 98.7993-201.1727 98.7993m804.7306 9.3982c-100.5945 0-100.5945-98.7992-201.1891-98.7992s-100.5946 98.7992-201.1884 98.7992c-100.5893 0-100.5893-98.7992-201.1804-98.7992-100.586 0-100.586 98.7992-201.1727 98.7992m804.7306 9.3983c-100.5945 0-100.5945-98.7992-201.1891-98.7992s-100.5946 98.7992-201.1884 98.7992c-100.5893 0-100.5893-98.7992-201.1804-98.7992-100.586 0-100.586 98.7992-201.1727 98.7992m804.7306 9.3983c-100.5945 0-100.5945-98.7992-201.1891-98.7992s-100.5946 98.7992-201.1884 98.7992c-100.5893 0-100.5893-98.7992-201.1804-98.7992-100.586 0-100.586 98.7992-201.1727 98.7992m804.7306 9.3905c-100.5945 0-100.5945-98.7993-201.1891-98.7993s-100.5946 98.7993-201.1884 98.7993c-100.5893 0-100.5893-98.7993-201.1804-98.7993-100.586 0-100.586 98.7993-201.1727 98.7993m804.7306 9.3965c-100.5945 0-100.5945-98.7993-201.1891-98.7993s-100.5946 98.7993-201.1884 98.7993c-100.5893 0-100.5893-98.7993-201.1804-98.7993-100.586 0-100.586 98.7993-201.1727 98.7993m804.7306 9.3957c-100.5945 0-100.5945-98.7993-201.1891-98.7993s-100.5946 98.7993-201.1884 98.7993c-100.5893 0-100.5893-98.7993-201.1804-98.7993-100.586 0-100.586 98.7993-201.1727 98.7993m804.7306 9.3983c-100.5945 0-100.5945-98.7993-201.1891-98.7993s-100.5946 98.7993-201.1884 98.7993c-100.5893 0-100.5893-98.7993-201.1804-98.7993-100.586 0-100.586 98.7993-201.1727 98.7993m804.7306 9.3956c-100.5945 0-100.5945-98.7992-201.1891-98.7992s-100.5946 98.7992-201.1884 98.7992c-100.5893 0-100.5893-98.7992-201.1804-98.7992-100.586 0-100.586 98.7992-201.1727 98.7992m804.7306 9.3974c-100.5945 0-100.5945-98.7992-201.1891-98.7992s-100.5946 98.7992-201.1884 98.7992c-100.5893 0-100.5893-98.7992-201.1804-98.7992-100.586 0-100.586 98.7992-201.1727 98.7992m804.7306 9.393c-100.5945 0-100.5945-98.7983-201.1891-98.7983s-100.5946 98.7984-201.1884 98.7984c-100.5893 0-100.5893-98.7984-201.1804-98.7984-100.586 0-100.586 98.7984-201.1727 98.7984m804.7306 9.4759c-100.5945 0-100.5945-98.7993-201.1891-98.7993s-100.5946 98.7993-201.1884 98.7993c-100.5893 0-100.5893-98.7993-201.1804-98.7993-100.586 0-100.586 98.7993-201.1727 98.7993m804.7306 9.3965c-100.5945 0-100.5945-98.7992-201.1891-98.7992s-100.5946 98.7992-201.1884 98.7992c-100.5893 0-100.5893-98.7992-201.1804-98.7992-100.586 0-100.586 98.7992-201.1727 98.7992m804.7306 9.3957c-100.5945 0-100.5945-98.7984-201.1891-98.7984s-100.5946 98.7984-201.1884 98.7984c-100.5893 0-100.5893-98.7984-201.1804-98.7984-100.586 0-100.586 98.7984-201.1727 98.7984m804.7306 9.3965c-100.5945 0-100.5945-98.7992-201.1891-98.7992s-100.5946 98.7992-201.1884 98.7992c-100.5893 0-100.5893-98.7992-201.1804-98.7992-100.586 0-100.586 98.7992-201.1727 98.7992m804.7306 9.3974c-100.5945 0-100.5945-98.7983-201.1891-98.7983s-100.5946 98.7983-201.1884 98.7983c-100.5893 0-100.5893-98.7983-201.1804-98.7983-100.586 0-100.586 98.7983-201.1727 98.7983m804.7306 9.3974c-100.5945 0-100.5945-98.7992-201.1891-98.7992s-100.5946 98.7992-201.1884 98.7992c-100.5893 0-100.5893-98.7992-201.1804-98.7992-100.586 0-100.586 98.7992-201.1727 98.7992m804.7306 9.3957c-100.5945 0-100.5945-98.7992-201.1891-98.7992s-100.5946 98.7992-201.1884 98.7992c-100.5893 0-100.5893-98.7992-201.1804-98.7992-100.586 0-100.586 98.7992-201.1727 98.7992m804.7306 9.3966c-100.5945 0-100.5945-98.7993-201.1891-98.7993s-100.5946 98.7993-201.1884 98.7993c-100.5893 0-100.5893-98.7993-201.1804-98.7993-100.586 0-100.586 98.7993-201.1727 98.7993m804.7306 9.3965c-100.5945 0-100.5945-98.7992-201.1891-98.7992s-100.5946 98.7992-201.1884 98.7992c-100.5893 0-100.5893-98.7992-201.1804-98.7992-100.586 0-100.586 98.7992-201.1727 98.7992m804.7306 9.3957c-100.5945 0-100.5945-98.7993-201.1891-98.7993s-100.5946 98.7993-201.1884 98.7993c-100.5893 0-100.5893-98.7993-201.1804-98.7993-100.586 0-100.586 98.7993-201.1727 98.7993m804.7306 9.3965c-100.5945 0-100.5945-98.7992-201.1891-98.7992s-100.5946 98.7992-201.1884 98.7992c-100.5893 0-100.5893-98.7992-201.1804-98.7992-100.586 0-100.586 98.7992-201.1727 98.7992m0 0C602.2062 806.2016 602.2062 905 702.7921 905c100.591 0 100.591-98.7984 201.1804-98.7984 100.5938 0 100.5938 98.7984 201.1884 98.7984s100.5946-98.7984 201.1891-98.7984m-804.7306-9.3965c100.5868 0 100.5868 98.7992 201.1727 98.7992 100.591 0 100.591-98.7992 201.1804-98.7992 100.5938 0 100.5938 98.7992 201.1884 98.7992s100.5946-98.7992 201.1891-98.7992m-804.7306-9.3957c100.5868 0 100.5868 98.7984 201.1727 98.7984 100.591 0 100.591-98.7984 201.1804-98.7984 100.5938 0 100.5938 98.7984 201.1884 98.7984s100.5946-98.7984 201.1891-98.7984m-804.7306-9.3965c100.5868 0 100.5868 98.7983 201.1727 98.7983 100.591 0 100.591-98.7983 201.1804-98.7983 100.5938 0 100.5938 98.7983 201.1884 98.7983s100.5946-98.7983 201.1891-98.7983m-804.7306-9.3966c100.5868 0 100.5868 98.7993 201.1727 98.7993 100.591 0 100.591-98.7993 201.1804-98.7993 100.5938 0 100.5938 98.7993 201.1884 98.7993s100.5946-98.7993 201.1891-98.7993m-804.7306-9.3957c100.5868 0 100.5868 98.7993 201.1727 98.7993 100.591 0 100.591-98.7993 201.1804-98.7993 100.5938 0 100.5938 98.7993 201.1884 98.7993s100.5946-98.7993 201.1891-98.7993m-804.7306-9.3974c100.5868 0 100.5868 98.7993 201.1727 98.7993 100.591 0 100.591-98.7993 201.1804-98.7993 100.5938 0 100.5938 98.7993 201.1884 98.7993s100.5946-98.7993 201.1891-98.7993m-804.7306-9.3974c100.5868 0 100.5868 98.7984 201.1727 98.7984 100.591 0 100.591-98.7984 201.1804-98.7984 100.5938 0 100.5938 98.7984 201.1884 98.7984s100.5946-98.7984 201.1891-98.7984m-804.7306-9.3965c100.5868 0 100.5868 98.7992 201.1727 98.7992 100.591 0 100.591-98.7992 201.1804-98.7992 100.5938 0 100.5938 98.7992 201.1884 98.7992s100.5946-98.7992 201.1891-98.7992m-804.7306-9.3957c100.5868 0 100.5868 98.7993 201.1727 98.7993 100.591 0 100.591-98.7993 201.1804-98.7993 100.5938 0 100.5938 98.7993 201.1884 98.7993s100.5946-98.7993 201.1891-98.7993m-804.7306-9.3965c100.5868 0 100.5868 98.7983 201.1727 98.7983 100.591 0 100.591-98.7983 201.1804-98.7983 100.5938 0 100.5938 98.7983 201.1884 98.7983s100.5946-98.7983 201.1891-98.7983m-804.7-9.4881c100.5867 0 100.5867 98.7992 201.1726 98.7992 100.591 0 100.591-98.7992 201.1813-98.7992 100.5938 0 100.5938 98.7992 201.1883 98.7992 100.5938 0 100.5938-98.7992 201.1884-98.7992m-804.7612-9.3809c100.5868 0 100.5868 98.7993 201.1727 98.7993 100.591 0 100.591-98.7993 201.1804-98.7993 100.5938 0 100.5938 98.7993 201.1884 98.7993s100.5946-98.7993 201.1891-98.7993m-804.7306-9.3974c100.5868 0 100.5868 98.7993 201.1727 98.7993 100.591 0 100.591-98.7993 201.1804-98.7993 100.5938 0 100.5938 98.7993 201.1884 98.7993s100.5946-98.7993 201.1891-98.7993m-804.7306-9.3956c100.5868 0 100.5868 98.7992 201.1727 98.7992 100.591 0 100.591-98.7992 201.1804-98.7992 100.5938 0 100.5938 98.7992 201.1884 98.7992s100.5946-98.7992 201.1891-98.7992m-804.7306-9.3983c100.5868 0 100.5868 98.7992 201.1727 98.7992 100.591 0 100.591-98.7992 201.1804-98.7992 100.5938 0 100.5938 98.7992 201.1884 98.7992s100.5946-98.7992 201.1891-98.7992m-804.7306-9.3957c100.5868 0 100.5868 98.7984 201.1727 98.7984 100.591 0 100.591-98.7984 201.1804-98.7984 100.5938 0 100.5938 98.7984 201.1884 98.7984s100.5946-98.7984 201.1891-98.7984m-804.7306-9.3965c100.5868 0 100.5868 98.7983 201.1727 98.7983 100.591 0 100.591-98.7983 201.1804-98.7983 100.5938 0 100.5938 98.7983 201.1884 98.7983s100.5946-98.7983 201.1891-98.7983m-804.7306-9.3905c100.5868 0 100.5868 98.7984 201.1727 98.7984 100.591 0 100.591-98.7984 201.1804-98.7984 100.5938 0 100.5938 98.7984 201.1884 98.7984s100.5946-98.7984 201.1891-98.7984m-804.7306-9.3983c100.5868 0 100.5868 98.7984 201.1727 98.7984 100.591 0 100.591-98.7984 201.1804-98.7984 100.5938 0 100.5938 98.7984 201.1884 98.7984s100.5946-98.7984 201.1891-98.7984m-804.7306-9.3983c100.5868 0 100.5868 98.7984 201.1727 98.7984 100.591 0 100.591-98.7984 201.1804-98.7984 100.5938 0 100.5938 98.7984 201.1884 98.7984s100.5946-98.7984 201.1891-98.7984m-804.7306-9.3982c100.5868 0 100.5868 98.7992 201.1727 98.7992 100.591 0 100.591-98.7992 201.1804-98.7992 100.5938 0 100.5938 98.7992 201.1884 98.7992s100.5946-98.7992 201.1891-98.7992m.0306 0c54.4656 0 98.6194 44.1896 98.6194 98.7007s-44.1538 98.7016-98.6194 98.7016m0-188.0058c49.2805 0 89.231 39.9835 89.231 89.3042 0 49.3225-39.9505 89.3033-89.231 89.3033m0-169.211c44.0953 0 79.8427 35.7765 79.8427 79.9077 0 44.1321-35.7474 79.9068-79.8427 79.9068m0-150.4188c38.911 0 70.4535 31.5703 70.4535 70.512 0 38.9435-31.5424 70.5102-70.4535 70.5102m0-131.6256c33.726 0 61.066 27.3632 61.066 61.1154s-27.34 61.1163-61.066 61.1163m0-112.8352c28.5408 0 51.6768 23.1562 51.6768 51.7189s-23.136 51.7206-51.6768 51.7206m0-94.0438c23.3548 0 42.2885 18.9482 42.2885 42.3232 0 23.3732-18.9337 42.3232-42.2885 42.3232m0-75.2481c18.1697 0 32.9001 14.7394 32.9001 32.9249s-14.7304 32.9258-32.9001 32.9258m0-56.455c12.9846 0 23.511 10.5332 23.511 23.5292 0 12.9969-10.5264 23.5301-23.511 23.5301m0-37.662c7.7995 0 14.1226 6.3263 14.1226 14.1319 0 7.8065-6.3231 14.1336-14.1226 14.1336m0-18.8698c2.6135 0 4.7342 2.12 4.7342 4.7362 0 2.617-2.1207 4.7388-4.7342 4.7388m-804.7612 93.9628c-54.4665 0-98.6194-44.1905-98.6194-98.6999 0-54.5128 44.153-98.7024 98.6194-98.7024m0 188.0058c-49.2805 0-89.231-39.9826-89.231-89.3034 0-49.3224 39.9505-89.3042 89.231-89.3042m0 169.212c-44.0953 0-79.8418-35.7774-79.8418-79.9078 0-44.133 35.7465-79.9076 79.8418-79.9076m0 150.4188c-38.912 0-70.4544-31.5694-70.4544-70.5112 0-38.9434 31.5424-70.512 70.4544-70.512m0 131.6266c-33.726 0-61.066-27.364-61.066-61.1146 0-33.754 27.34-61.1171 61.066-61.1171m0 112.836c-28.5408 0-51.6768-23.1579-51.6768-51.7189 0-28.5644 23.136-51.7206 51.6768-51.7206m0 94.0421c-23.3557 0-42.2885-18.9474-42.2885-42.3215 0-23.375 18.9328-42.325 42.2885-42.325m0 75.2491c-18.1706 0-32.8993-14.7403-32.8993-32.924 0-18.1873 14.7287-32.9267 32.8993-32.9267m0 56.4542c-12.9846 0-23.5118-10.5333-23.5118-23.5276 0-12.9977 10.5272-23.531 23.5118-23.531m0 37.663c-7.7995 0-14.1235-6.3272-14.1235-14.132 0-7.8073 6.324-14.1336 14.1235-14.1336m0 18.869c-2.6135 0-4.7342-2.1201-4.7342-4.7354 0-2.6178 2.1207-4.7405 4.7342-4.7405"
            stroke="#50E3C2"
        />
        <circle fill="#50E3C2" cx="703" cy="609" r="84" />
        <circle fill="#10364B" cx="501.5" cy="503.5" r="55.5" />
        <circle fill="#FFACAC" cx="703" cy="395" r="39" />
        <circle fill="#FCF7AF" cx="501.5" cy="707.5" r="24.5" />
        <circle fill="#FFF" cx="708" cy="197" r="35" />
    </g>
</svg>